<svg width="375" height="812" viewBox="0 0 375 812" fill="none" xmlns="http://www.w3.org/2000/svg">
<rect width="375" height="812" fill="#E5E5E5"/>
<rect width="375" height="812" fill="#CCD5BF"/>
<path d="M105.873 369.248C105.873 370.784 106.097 372.096 106.545 373.184C107.025 374.272 107.809 375.296 108.897 376.256C109.921 377.184 110.881 378.016 111.777 378.752C112.673 379.456 113.473 380.08 114.177 380.624C114.881 381.168 115.217 381.792 115.185 382.496C115.185 383.168 114.961 383.792 114.513 384.368C114.321 384.624 114.081 384.864 113.793 385.088C113.505 385.28 113.185 385.424 112.833 385.52C112.513 385.616 112.161 385.648 111.777 385.616C111.425 385.552 111.089 385.392 110.769 385.136C110.161 384.688 109.441 384.128 108.609 383.456C107.777 382.752 106.897 382 105.969 381.2C105.425 380.72 104.961 380.304 104.577 379.952C104.225 379.6 103.921 379.296 103.665 379.04C103.441 378.752 103.265 378.496 103.137 378.272C103.009 378.016 102.913 377.76 102.849 377.504H102.801C102.737 377.792 102.641 378.064 102.513 378.32C102.417 378.576 102.241 378.864 101.985 379.184C101.761 379.472 101.441 379.824 101.025 380.24C100.641 380.624 100.145 381.072 99.537 381.584C98.609 382.416 97.697 383.184 96.801 383.888C95.905 384.592 94.993 385.296 94.065 386C93.713 386.256 93.345 386.416 92.961 386.48C92.609 386.544 92.257 386.528 91.905 386.432C91.585 386.336 91.281 386.176 90.993 385.952C90.705 385.728 90.465 385.488 90.273 385.232C89.857 384.688 89.633 384.048 89.601 383.312C89.569 382.544 89.921 381.888 90.657 381.344C91.681 380.576 92.673 379.808 93.633 379.04C94.593 378.272 95.585 377.424 96.609 376.496C97.697 375.536 98.465 374.512 98.913 373.424C99.393 372.336 99.633 371.024 99.633 369.488V364.928C99.633 364 99.937 363.328 100.545 362.912C101.185 362.496 101.921 362.288 102.753 362.288C103.585 362.288 104.305 362.496 104.913 362.912C105.553 363.328 105.873 364 105.873 364.928V369.248ZM128.817 372.416C129.585 372.416 130.145 372.672 130.497 373.184C130.849 373.696 131.025 374.32 131.025 375.056C131.025 375.792 130.849 376.432 130.497 376.976C130.145 377.488 129.585 377.744 128.817 377.744H124.305V390.56C124.305 391.456 123.985 392.112 123.345 392.528C122.737 392.944 122.033 393.152 121.233 393.152C120.433 393.152 119.713 392.944 119.073 392.528C118.465 392.112 118.161 391.456 118.161 390.56V363.008C118.161 362.112 118.465 361.456 119.073 361.04C119.713 360.624 120.433 360.416 121.233 360.416C122.033 360.416 122.737 360.624 123.345 361.04C123.985 361.456 124.305 362.112 124.305 363.008V372.416H128.817ZM99.969 404.576C98.433 404.576 97.361 404.288 96.753 403.712C96.177 403.136 95.889 402.096 95.889 400.592V391.52C95.889 390.624 96.193 389.968 96.801 389.552C97.441 389.136 98.177 388.928 99.009 388.928C99.809 388.928 100.513 389.136 101.121 389.552C101.761 389.968 102.081 390.624 102.081 391.52V398.24C102.081 398.976 102.449 399.344 103.185 399.344H123.201C123.937 399.344 124.481 399.6 124.833 400.112C125.185 400.624 125.361 401.248 125.361 401.984C125.361 402.688 125.185 403.296 124.833 403.808C124.481 404.32 123.937 404.576 123.201 404.576H99.969Z" fill="white"/>
<path d="M146.584 370.928V372.176C146.584 372.848 146.616 373.44 146.681 373.952C146.744 374.432 146.856 374.896 147.016 375.344C147.208 375.76 147.464 376.16 147.784 376.544C148.104 376.928 148.505 377.36 148.985 377.84C149.817 378.64 150.585 379.36 151.289 380C152.025 380.608 152.617 381.088 153.065 381.44C153.641 381.92 153.929 382.528 153.929 383.264C153.929 383.968 153.705 384.592 153.257 385.136C152.809 385.68 152.233 386.016 151.528 386.144C150.825 386.24 150.185 386.064 149.609 385.616C149.161 385.264 148.712 384.896 148.264 384.512C147.816 384.128 147.273 383.648 146.633 383.072C145.577 382.144 144.824 381.424 144.376 380.912C143.96 380.4 143.705 379.936 143.609 379.52H143.56C143.464 380.064 143.192 380.608 142.744 381.152C142.328 381.696 141.576 382.448 140.488 383.408C139.848 383.952 139.241 384.48 138.665 384.992C138.089 385.504 137.432 386.048 136.696 386.624C136.152 387.072 135.529 387.232 134.825 387.104C134.121 386.976 133.529 386.624 133.049 386.048C132.6 385.504 132.344 384.88 132.28 384.176C132.248 383.472 132.505 382.896 133.049 382.448C133.977 381.712 134.84 380.992 135.64 380.288C136.472 379.584 137.305 378.832 138.137 378.032C138.617 377.552 139.016 377.12 139.336 376.736C139.656 376.352 139.896 375.952 140.056 375.536C140.248 375.088 140.376 374.624 140.44 374.144C140.504 373.632 140.536 373.04 140.536 372.368V370.928H134.681C133.945 370.928 133.401 370.672 133.049 370.16C132.697 369.648 132.521 369.04 132.521 368.336C132.521 367.632 132.697 367.024 133.049 366.512C133.401 366 133.945 365.744 134.681 365.744H140.536V362.768C140.536 361.904 140.841 361.264 141.449 360.848C142.089 360.432 142.792 360.224 143.56 360.224C144.328 360.224 145.017 360.432 145.625 360.848C146.265 361.264 146.584 361.904 146.584 362.768V365.744H151.768C152.504 365.744 153.049 366 153.401 366.512C153.753 367.024 153.929 367.632 153.929 368.336C153.929 369.04 153.753 369.648 153.401 370.16C153.049 370.672 152.504 370.928 151.768 370.928H146.584ZM160.985 371.312H164.825V362.816C164.825 361.984 165.113 361.376 165.689 360.992C166.265 360.608 166.921 360.416 167.657 360.416C168.393 360.416 169.049 360.608 169.625 360.992C170.201 361.376 170.489 361.984 170.489 362.816V385.232C170.489 386.064 170.201 386.672 169.625 387.056C169.049 387.44 168.393 387.632 167.657 387.632C166.921 387.632 166.265 387.44 165.689 387.056C165.113 386.672 164.825 386.064 164.825 385.232V376.448H160.985V384.992C160.985 385.824 160.697 386.432 160.121 386.816C159.545 387.2 158.889 387.392 158.153 387.392C157.449 387.392 156.809 387.2 156.233 386.816C155.657 386.432 155.369 385.824 155.369 384.992V363.056C155.369 362.224 155.657 361.616 156.233 361.232C156.809 360.848 157.449 360.656 158.153 360.656C158.889 360.656 159.545 360.848 160.121 361.232C160.697 361.616 160.985 362.224 160.985 363.056V371.312ZM164.345 395.696C164.345 394.96 163.977 394.592 163.241 394.592H141.785C141.049 394.592 140.505 394.336 140.153 393.824C139.801 393.312 139.625 392.704 139.625 392C139.625 391.296 139.801 390.688 140.153 390.176C140.505 389.664 141.049 389.408 141.785 389.408H166.409C167.945 389.408 169.001 389.696 169.577 390.272C170.185 390.848 170.489 391.888 170.489 393.392V402.944C170.489 403.84 170.169 404.496 169.529 404.912C168.921 405.328 168.217 405.536 167.417 405.536C166.617 405.536 165.897 405.328 165.257 404.912C164.649 404.496 164.345 403.84 164.345 402.944V395.696Z" fill="white"/>
<path d="M178.56 368.96C177.824 368.96 177.28 368.704 176.928 368.192C176.576 367.68 176.4 367.072 176.4 366.368C176.4 365.632 176.576 365.008 176.928 364.496C177.28 363.984 177.824 363.728 178.56 363.728H192.912C194.448 363.728 195.504 364.016 196.08 364.592C196.688 365.168 196.992 366.208 196.992 367.712V372.944C196.992 374.96 196.8 376.72 196.416 378.224C196.032 379.696 195.248 381.136 194.064 382.544C192.88 383.952 191.184 385.456 188.976 387.056C186.8 388.624 183.904 390.528 180.288 392.768C179.616 393.184 178.912 393.264 178.176 393.008C177.472 392.72 176.928 392.288 176.544 391.712C176.16 391.136 175.968 390.464 175.968 389.696C175.968 388.928 176.32 388.32 177.024 387.872C179.2 386.56 181.056 385.408 182.592 384.416C184.128 383.392 185.408 382.48 186.432 381.68C187.456 380.88 188.256 380.144 188.832 379.472C189.44 378.8 189.888 378.128 190.176 377.456C190.496 376.752 190.688 376.032 190.752 375.296C190.848 374.56 190.896 373.712 190.896 372.752V370.064C190.896 369.328 190.528 368.96 189.792 368.96H178.56ZM214.272 374.576C215.04 374.576 215.6 374.832 215.952 375.344C216.304 375.856 216.48 376.48 216.48 377.216C216.48 377.952 216.304 378.592 215.952 379.136C215.6 379.648 215.04 379.904 214.272 379.904H209.76V399.776C209.76 400.672 209.44 401.328 208.8 401.744C208.192 402.16 207.488 402.368 206.688 402.368C205.888 402.368 205.168 402.16 204.528 401.744C203.92 401.328 203.616 400.672 203.616 399.776V363.008C203.616 362.112 203.92 361.456 204.528 361.04C205.168 360.624 205.888 360.416 206.688 360.416C207.488 360.416 208.192 360.624 208.8 361.04C209.44 361.456 209.76 362.112 209.76 363.008V374.576H214.272Z" fill="white"/>
<path d="M220.807 369.248C220.071 369.248 219.527 368.992 219.175 368.48C218.823 367.968 218.647 367.36 218.647 366.656C218.647 365.92 218.823 365.296 219.175 364.784C219.527 364.272 220.071 364.016 220.807 364.016H232.279C233.815 364.016 234.871 364.304 235.447 364.88C236.055 365.456 236.359 366.496 236.359 368V373.088C236.359 374.56 236.312 375.84 236.215 376.928C236.12 378.016 235.911 379.04 235.591 380C235.303 380.928 234.855 381.824 234.247 382.688C233.671 383.52 232.872 384.416 231.848 385.376C230.856 386.304 229.608 387.328 228.104 388.448C226.6 389.568 224.792 390.88 222.68 392.384C222.04 392.832 221.351 392.96 220.615 392.768C219.879 392.544 219.303 392.144 218.887 391.568C218.695 391.28 218.536 390.96 218.408 390.608C218.28 390.256 218.215 389.904 218.215 389.552C218.215 389.168 218.28 388.816 218.408 388.496C218.568 388.176 218.823 387.904 219.175 387.68C220.999 386.432 222.535 385.344 223.783 384.416C225.063 383.488 226.119 382.656 226.951 381.92C227.783 381.184 228.439 380.496 228.919 379.856C229.399 379.216 229.751 378.56 229.975 377.888C230.199 377.216 230.327 376.496 230.359 375.728C230.423 374.928 230.456 373.984 230.456 372.896V370.352C230.456 369.616 230.088 369.248 229.352 369.248H220.807ZM246.152 374.864H250.279V362.816C250.279 361.984 250.567 361.376 251.143 360.992C251.719 360.608 252.375 360.416 253.111 360.416C253.847 360.416 254.503 360.608 255.079 360.992C255.655 361.376 255.943 361.984 255.943 362.816V399.968C255.943 400.8 255.655 401.408 255.079 401.792C254.503 402.176 253.847 402.368 253.111 402.368C252.375 402.368 251.719 402.176 251.143 401.792C250.567 401.408 250.279 400.8 250.279 399.968V380.048H246.152V397.952C246.152 398.784 245.864 399.392 245.288 399.776C244.712 400.16 244.056 400.352 243.32 400.352C242.616 400.352 241.976 400.16 241.4 399.776C240.824 399.392 240.535 398.784 240.535 397.952V363.296C240.535 362.464 240.824 361.856 241.4 361.472C241.976 361.088 242.616 360.896 243.32 360.896C244.056 360.896 244.712 361.088 245.288 361.472C245.864 361.856 246.152 362.464 246.152 363.296V374.864Z" fill="white"/>
<path d="M276.3 397.136C275.004 397.136 273.84 396.968 272.808 396.632C271.776 396.32 270.9 395.864 270.18 395.264C269.46 394.688 268.908 393.992 268.524 393.176C268.14 392.36 267.948 391.46 267.948 390.476L267.948 390.08C267.948 389.504 268.02 388.952 268.164 388.424C268.284 387.92 268.512 387.404 268.848 386.876C269.16 386.348 269.604 385.784 270.18 385.184C270.732 384.584 271.428 383.9 272.268 383.132C272.796 382.652 273.216 382.232 273.528 381.872C273.84 381.536 274.08 381.212 274.248 380.9C274.416 380.612 274.524 380.312 274.572 380C274.62 379.712 274.644 379.376 274.644 378.992C274.644 378.44 274.86 378.008 275.292 377.696C275.7 377.384 276.18 377.228 276.732 377.228C277.332 377.228 277.848 377.372 278.28 377.66C278.712 377.972 278.928 378.452 278.928 379.1C278.928 379.724 278.892 380.288 278.82 380.792C278.748 381.296 278.616 381.776 278.424 382.232C278.208 382.712 277.908 383.18 277.524 383.636C277.116 384.116 276.588 384.644 275.94 385.22C275.196 385.868 274.608 386.408 274.176 386.84C273.72 387.296 273.372 387.704 273.132 388.064C272.892 388.424 272.736 388.748 272.664 389.036C272.592 389.348 272.556 389.684 272.556 390.044L272.556 390.224C272.556 390.608 272.628 390.968 272.772 391.304C272.916 391.64 273.144 391.94 273.456 392.204C273.744 392.468 274.14 392.672 274.644 392.816C275.124 392.984 275.724 393.068 276.444 393.068C277.404 393.068 278.244 392.924 278.964 392.636C279.684 392.348 280.368 391.976 281.016 391.52C281.496 391.184 281.976 391.064 282.456 391.16C282.912 391.28 283.308 391.568 283.644 392.024C283.98 392.456 284.148 392.936 284.148 393.464C284.124 394.016 283.872 394.472 283.392 394.832C282.504 395.528 281.484 396.08 280.332 396.488C279.156 396.92 277.812 397.136 276.3 397.136ZM276.768 374.816C276 374.816 275.352 374.552 274.824 374.024C274.296 373.496 274.032 372.848 274.032 372.08C274.032 371.312 274.296 370.664 274.824 370.136C275.352 369.608 276 369.344 276.768 369.344C277.536 369.344 278.184 369.608 278.712 370.136C279.24 370.664 279.504 371.312 279.504 372.08C279.504 372.848 279.24 373.496 278.712 374.024C278.184 374.552 277.536 374.816 276.768 374.816Z" fill="white"/>
<path d="M136.738 475.715C138.351 473.987 140.546 472.946 142.463 471.576C144.852 469.856 146.821 467.519 149.434 466.124C152.046 464.728 155.676 464.47 157.6 466.738C158.259 467.513 158.653 468.462 159.017 469.436C160.396 472.936 161.749 476.406 163.157 479.88C164.654 483.64 164.892 488.517 160.334 490.281C156.948 491.614 153.505 488.583 151.207 486.479C149.762 485.139 147.807 483.924 145.924 484.547C145.24 484.768 144.617 485.245 143.979 485.581C138.099 488.569 132.172 480.615 136.738 475.715Z" fill="#89A28A"/>
<path d="M136.984 465.602C137.647 466.989 138.807 468.417 140.335 468.403C141.252 468.395 142.069 467.907 142.811 467.329C146.463 464.436 150.099 455.296 142.984 454.046C137.209 453.045 135.12 461.591 136.984 465.602Z" fill="#89A28A"/>
<path d="M150.302 452.148C150.146 454.384 151.31 456.783 153.377 457.647C153.754 457.789 154.161 457.905 154.581 457.857C155.197 457.796 155.754 457.425 156.257 457.05C158.188 455.515 159.612 453.383 160.328 451.082C160.751 449.646 160.963 448.081 160.439 446.677C159.916 445.274 158.598 444.083 157.099 444.072C152.996 444.013 150.541 448.558 150.302 452.148Z" fill="#89A28A"/>
<path d="M162.229 453.626C160.935 455.185 159.92 457.073 159.952 459.047C159.98 461.075 161.311 463.128 163.248 463.537C164.94 463.897 166.651 463.01 168.095 461.991C169.947 460.727 171.742 459.153 172.495 457.077C173.278 454.976 172.672 452.206 170.674 451.181C167.101 449.389 164.629 450.769 162.229 453.626Z" fill="#89A28A"/>
<path d="M165.341 471.87C164.893 473.277 164.897 474.915 165.769 476.125C169.057 480.725 175.153 474.424 176.21 471.012C177.487 466.953 174.021 464.198 170.197 465.8C167.896 466.777 166.112 469.574 165.341 471.87Z" fill="#89A28A"/>
<path d="M63.2949 481.991C60.7318 479.393 61.7889 474.288 65.1233 472.896C65.8719 472.569 66.6874 472.441 67.4776 472.284C70.4088 471.747 73.34 471.21 76.2964 470.703C78.6924 470.261 81.1434 469.824 83.5836 469.857C85.7734 469.898 88.1431 470.453 89.5607 472.124C91.4041 474.357 90.9419 477.623 90.346 480.489C89.789 483.219 89.2021 485.975 88.6704 488.735C88.1613 491.22 87.588 493.81 85.9361 495.673C84.2544 497.562 81.1307 498.416 79.2122 496.76C77.4501 495.227 77.5316 492.541 76.7704 490.313C74.5375 483.69 67.3189 486.068 63.2949 481.991Z" fill="#89A28A"/>
<path d="M73.5945 467.095C74.0592 467.521 74.6433 467.847 75.2798 467.871C75.9669 467.955 76.6513 467.734 77.2598 467.423C79.1955 466.499 80.7534 464.767 81.4768 462.716C81.6621 462.148 81.8177 461.606 81.9226 461.004C82.0139 460.567 82.0799 460.101 82.0908 459.63C82.0376 455.878 77.0017 454.659 74.537 456.956C71.9828 459.328 70.6662 464.55 73.5945 467.095Z" fill="#89A28A"/>
<path d="M87.771 463.482C87.7086 464.921 88.1796 466.625 89.5565 467.099C89.9887 467.245 90.4046 467.252 90.8503 467.233C92.7987 467.17 94.8085 466.697 96.4315 465.525C98.0245 464.379 99.1249 462.47 99.0373 460.492C98.8747 457.397 95.6715 455.497 92.7521 456.229C89.9176 456.94 87.9375 460.775 87.771 463.482Z" fill="#89A28A"/>
<path d="M98.771 467.799C97.5332 468.336 96.3117 469.013 95.4491 470.053C94.5612 471.063 94.0278 472.49 94.28 473.816C94.5855 475.507 96.1198 476.771 97.7517 477.182C99.4134 477.568 101.189 477.242 102.767 476.622C105.293 475.607 108.921 472.324 106.73 469.257C104.914 466.693 101.331 466.704 98.771 467.799Z" fill="#89A28A"/>
<path d="M104.867 485.205C104.556 486.29 103.787 487.199 102.897 487.903C100.787 489.59 97.7829 490.343 95.1465 489.655C92.6457 489.006 90.7165 486.127 92.4136 483.712C94.6107 480.617 106.74 478.946 104.867 485.205Z" fill="#89A28A"/>
<path d="M42.3361 548.674C44.5431 547.828 46.9834 547.862 49.3196 547.47C52.2462 546.989 55.0409 545.746 57.991 545.655C60.971 545.539 64.3252 546.952 65.0619 549.816C65.316 550.781 65.2301 551.829 65.174 552.851C64.8664 556.602 64.5887 560.327 64.2559 564.047C63.9257 568.073 61.9763 572.549 57.123 572.151C53.5129 571.827 51.722 567.6 50.6245 564.734C49.8868 562.896 48.6871 560.938 46.7659 560.669C46.0535 560.556 45.3184 560.717 44.5671 560.739C37.8992 560.803 36.1148 551.079 42.3361 548.674Z" fill="#89A28A"/>
<path d="M47.0416 539.705C47.0253 541.258 47.4366 543.013 48.7955 543.707C49.5956 544.106 50.572 544.047 51.4771 543.844C56.0275 542.857 63.314 536.264 57.4998 532.012C52.7596 528.542 47.0978 535.295 47.0416 539.705Z" fill="#89A28A"/>
<path d="M64.928 533.509C63.7978 535.443 63.7715 538.134 65.274 539.784C65.5272 540.082 65.8653 540.36 66.2424 540.502C66.8354 540.717 67.5063 540.661 68.1012 540.516C70.4763 539.989 72.7195 538.701 74.3922 536.923C75.4247 535.842 76.2846 534.496 76.4365 532.982C76.6138 531.497 75.943 529.86 74.5841 529.166C70.9261 527.394 66.7391 530.382 64.928 533.509Z" fill="#89A28A"/>
<path d="M74.966 540.079C73.1243 540.872 71.382 542.145 70.5113 543.961C69.6405 545.778 69.9126 548.215 71.5065 549.429C72.8889 550.514 74.8119 550.421 76.5234 550.201C78.715 549.881 81.0395 549.294 82.639 547.732C84.2637 546.199 84.931 543.478 83.5821 541.646C81.2343 538.456 78.3899 538.611 74.966 540.079Z" fill="#89A28A"/>
<path d="M69.7326 557.861C68.7001 558.942 67.9966 560.412 68.2099 561.873C69.1111 567.471 77.3766 564.512 79.8386 561.91C82.7572 558.818 80.8931 554.806 76.7477 554.578C74.2361 554.399 71.4306 556.113 69.7326 557.861Z" fill="#89A28A"/>
<path d="M192.658 299.232C190.094 296.634 191.152 291.53 194.486 290.137C195.235 289.81 196.05 289.683 196.84 289.525C199.771 288.989 202.703 288.452 205.659 287.944C208.055 287.502 210.506 287.065 212.946 287.098C215.136 287.139 217.506 287.694 218.923 289.365C220.767 291.599 220.305 294.864 219.709 297.73C219.152 300.461 218.565 303.216 218.033 305.977C217.524 308.461 216.951 311.051 215.299 312.915C213.617 314.803 210.493 315.658 208.575 314.001C206.813 312.469 206.894 309.783 206.133 307.555C203.9 300.931 196.682 303.31 192.658 299.232Z" fill="#89A28A"/>
<path d="M202.957 284.336C203.422 284.763 204.006 285.088 204.642 285.113C205.33 285.197 206.014 284.975 206.622 284.664C208.558 283.74 210.116 282.008 210.839 279.958C211.025 279.39 211.18 278.847 211.285 278.245C211.377 277.808 211.443 277.342 211.453 276.871C211.4 273.119 206.364 271.901 203.9 274.197C201.345 276.569 200.029 281.792 202.957 284.336Z" fill="#89A28A"/>
<path d="M217.134 280.724C217.071 282.162 217.542 283.866 218.919 284.34C219.351 284.487 219.767 284.493 220.213 284.474C222.161 284.412 224.171 283.938 225.794 282.766C227.387 281.62 228.488 279.711 228.4 277.733C228.237 274.638 225.034 272.738 222.115 273.47C219.28 274.182 217.3 278.017 217.134 280.724Z" fill="#89A28A"/>
<path d="M228.134 285.04C226.896 285.577 225.674 286.255 224.812 287.294C223.924 288.304 223.39 289.732 223.643 291.057C223.948 292.748 225.482 294.012 227.114 294.423C228.776 294.809 230.552 294.483 232.13 293.863C234.656 292.849 238.284 289.565 236.093 286.498C234.276 283.934 230.694 283.946 228.134 285.04Z" fill="#89A28A"/>
<path d="M234.229 302.447C233.918 303.532 233.15 304.44 232.259 305.144C230.15 306.831 227.146 307.585 224.509 306.896C222.008 306.247 220.079 303.368 221.776 300.954C223.973 297.858 236.103 296.188 234.229 302.447Z" fill="#89A28A"/>
<path d="M266.089 265.334C268.296 264.488 270.737 264.521 273.073 264.13C275.999 263.648 278.794 262.406 281.744 262.315C284.724 262.198 288.078 263.611 288.815 266.476C289.069 267.44 288.983 268.488 288.927 269.511C288.62 273.261 288.342 276.986 288.009 280.706C287.679 284.732 285.729 289.209 280.876 288.811C277.266 288.487 275.475 284.259 274.378 281.393C273.64 279.556 272.44 277.597 270.519 277.329C269.807 277.215 269.072 277.377 268.32 277.398C261.652 277.462 259.868 267.738 266.089 265.334Z" fill="#89A28A"/>
<path d="M270.795 256.364C270.779 257.917 271.19 259.672 272.549 260.367C273.349 260.765 274.325 260.707 275.23 260.503C279.781 259.516 287.067 252.924 281.253 248.671C276.513 245.201 270.851 251.955 270.795 256.364Z" fill="#89A28A"/>
<path d="M288.681 250.169C287.551 252.103 287.525 254.793 289.027 256.443C289.28 256.742 289.619 257.019 289.996 257.161C290.589 257.376 291.26 257.32 291.854 257.175C294.23 256.648 296.473 255.361 298.145 253.582C299.178 252.501 300.038 251.156 300.19 249.641C300.367 248.157 299.696 246.519 298.337 245.825C294.679 244.054 290.492 247.042 288.681 250.169Z" fill="#89A28A"/>
<path d="M298.719 256.739C296.877 257.531 295.135 258.804 294.264 260.621C293.394 262.437 293.666 264.875 295.26 266.088C296.642 267.173 298.565 267.081 300.277 266.86C302.468 266.54 304.793 265.954 306.392 264.391C308.017 262.859 308.684 260.138 307.335 258.306C304.987 255.115 302.143 255.27 298.719 256.739Z" fill="#89A28A"/>
<path d="M293.486 274.52C292.453 275.602 291.75 277.071 291.963 278.532C292.864 284.13 301.13 281.171 303.592 278.569C306.51 275.477 304.646 271.466 300.501 271.237C297.989 271.059 295.184 272.772 293.486 274.52Z" fill="#89A28A"/>
<path d="M287.048 198.65C284.485 196.052 285.542 190.948 288.876 189.555C289.625 189.228 290.441 189.101 291.231 188.943C294.162 188.406 297.093 187.87 300.05 187.362C302.446 186.92 304.897 186.483 307.337 186.516C309.527 186.557 311.896 187.112 313.314 188.783C315.157 191.016 314.695 194.282 314.099 197.148C313.542 199.879 312.955 202.634 312.424 205.395C311.914 207.879 311.341 210.469 309.689 212.333C308.008 214.221 304.884 215.076 302.965 213.419C301.203 211.887 301.285 209.2 300.524 206.973C298.291 200.349 291.072 202.728 287.048 198.65Z" fill="#89A28A"/>
<path d="M297.348 183.754C297.812 184.181 298.396 184.506 299.033 184.531C299.72 184.615 300.404 184.393 301.013 184.082C302.949 183.158 304.506 181.426 305.23 179.375C305.415 178.808 305.571 178.265 305.676 177.663C305.767 177.226 305.833 176.76 305.844 176.289C305.791 172.537 300.755 171.319 298.29 173.615C295.736 175.987 294.419 181.21 297.348 183.754Z" fill="#89A28A"/>
<path d="M311.524 180.142C311.462 181.58 311.933 183.284 313.31 183.758C313.742 183.905 314.158 183.911 314.603 183.892C316.552 183.83 318.562 183.356 320.185 182.184C321.778 181.038 322.878 179.129 322.79 177.151C322.628 174.056 319.425 172.156 316.505 172.888C313.671 173.599 311.691 177.435 311.524 180.142Z" fill="#89A28A"/>
<path d="M322.524 184.458C321.286 184.995 320.065 185.672 319.202 186.712C318.314 187.722 317.781 189.15 318.033 190.475C318.339 192.166 319.873 193.43 321.505 193.841C323.167 194.227 324.942 193.901 326.52 193.281C329.046 192.267 332.674 188.983 330.483 185.916C328.667 183.352 325.085 183.364 322.524 184.458Z" fill="#89A28A"/>
<path d="M328.62 201.865C328.309 202.95 327.54 203.858 326.65 204.562C324.54 206.249 321.536 207.002 318.9 206.314C316.399 205.665 314.47 202.786 316.167 200.371C318.364 197.276 330.493 195.605 328.62 201.865Z" fill="#89A28A"/>
</svg>
